<?xml version="1.0" encoding="utf-8"?>
<!-- Generator: Adobe Illustrator 24.0.2, SVG Export Plug-In . SVG Version: 6.00 Build 0)  -->
<svg version="1.1" id="Layer_1" xmlns="http://www.w3.org/2000/svg" xmlns:xlink="http://www.w3.org/1999/xlink" x="0px" y="0px"
	 viewBox="0 0 512 512" style="enable-background:new 0 0 512 512;" xml:space="preserve">
<style type="text/css">
	.st0{fill:#FBD108;}
	.st1{fill:#DE9D27;}
	.st2{fill:#CCEDFC;}
	.st3{fill:#A9BEC9;}
</style>
<g>
	<path class="st0" d="M268.3,195.4c4.6,0.3,8.7,1.3,10.1,2.4c1.4,1.1,4.1,4.8,4.1,4.8l3,5.7c1.1,2.2,2,4.5,2.4,6.8l2.1,10.2
		c0.2,1.1,0.4,2.1,0.4,3.2c0.1,3,0.4,9.2-0.1,12c-0.6,3.8-3.6,15-3.6,15s-4.8,8.6-7.3,10.3s-18.7,6.5-24.6,6.6
		c-5.9,0.1-21.2-2.4-26.2-4.9c-5-2.4-22.7-18.9-24-23.9c-1.3-5,0-30.5,0-30.5s6-12.3,11.6-15.3s8.4-4.5,13.4-4.6
		c5-0.1,18.3,2.6,22.3,5.5S268.3,195.4,268.3,195.4z"/>
	<path class="st0" d="M278,267.7c0,0,6.9,11.6,8.2,21.1c1.3,9.4,2,28.3,1.5,33.3c-0.5,5-3.2,12.1-3.2,12.1s-12.3,11.5-25.1,10.1
		c-12.9-1.4-23.4-5.3-27.6-8.8c-5.4-4.6-13.1-6.9-17.7-23.9s-1.9-37.9-1.9-37.9s1.1-6,6.3-6S278,267.7,278,267.7z"/>
	<path class="st1" d="M223.3,267.7c0,0-2.6,10.7-1.8,23.6s3.4,25.7,7.1,31.3c3.7,5.6,18.5,17.9,18.5,17.9s-3.2,1.7-10.9-2
		c-7.7-3.7-18.8-19-18.8-19l-6.1-19.8V277l5.9-9.3H223.3z"/>
	<path class="st1" d="M221.2,198.8c0,0-9.7,15.3-8.6,27.8c0.5,5.5,2.2,11.1,4,15.7c2.3,6.1,6.5,11.2,11.8,14.8l14.7,9.9l-13.4-0.5
		l-19.2-14.8l-4.7-11.2l-1.6-13.9l2.3-16.8l11.4-12.8L221.2,198.8z"/>
	<path class="st2" d="M204.7,213.2c0,0-1.8,7.5-1.8,13.1s1.8,21.7,1.8,21.7s-7.3-3.9-9.8-6.2s-7.4-7.1-8.4-11.2
		c-1-4.1-2-10.8-1.5-15.4c0.5-4.6,5.9-11.5,5.9-11.5s5.1,1.5,8.8,4.5C203.3,211.2,204.7,213.2,204.7,213.2z"/>
	<path class="st2" d="M215.3,259.9l-6.3,18.6c0,0-34.3,2.2-42.3-8c-7.9-10.2-9.8-11.7-11.1-18s0-28.2,0-28.2l3.3-4.2
		c0,0,11.5,4.1,17.4,9.4C182.2,234.9,215.3,259.9,215.3,259.9z"/>
	<polygon class="st3" points="204.7,251.9 200.3,277.6 209,278.6 215.3,259.9 	"/>
</g>
<g>
	<path d="M183.2,229.6c-1.4-7.4-0.9-14.1,2-20.5c3.1-6.9,6.7-8.1,13.5-4.9c2.7,1.2,5,4.7,7.5,3.9c2.1-0.7,3.1-4.4,5-6.5
		c8.1-9.3,18.2-13.1,30-9c8.9,3.1,17.2,2.4,25.8-0.1c17.3-5,24.9-1.7,31.3,15.4c7.6,20.2,6.5,39.5-9.7,55.7
		c-1.5,1.5-1.6,2.5-0.3,4.1c11.3,14.9,12.9,31.9,11.1,49.7c-0.7,7.1-3.8,13.3-8.7,18.6c-4.2,4.6-4.1,7,0.5,11.2
		c4.1,3.7,9.1,6.1,13.6,9.2c1.1,0.7,2.1,1.5,2.8,3.3c-4.2,0.7-8.1-0.2-11.6-1.5c-13.9-5.2-27.9-8.8-42.8-10.6
		c-24.5-3-41.2-21.3-44.7-46.1c-0.6-4.6-1.4-9.3-0.7-13.9c0.6-3.6-0.2-5-4.3-4.5c-8.7,1-17.3,0.2-25.6-2.7
		c-15.1-5.2-23.5-17.6-24.3-35.3c-0.3-6.8,0.6-13.6,1.8-20.3c1-5.5,3.8-7.3,9.3-5.6c4.5,1.4,8.4,3.9,12.3,6.4
		C178.8,226.8,180.7,228,183.2,229.6z M271.9,206.5c-4.7,3.3-8.9,2-13,1c-6.5-1.6-11.8-6-18.3-7.8c-8.7-2.4-16.3-1.4-22.8,5.4
		c-8.1,8.6-9.3,19-8.4,30.1c0.8,10.2,4.9,18.5,13.5,24.2c11.7,7.8,25,9.1,38.5,7.7c18.2-1.8,31.1-12.9,34.2-28.3
		c0.7-3.6,0.3-5.2-3.7-3.7c-2.8,1.1-5.5,0.8-8.3,0c-6.2-1.8-7.8-5.4-4.3-10.7c2.6-3.9,5.4-7.6,8.6-11c3.1-3.4,4.2-6.3,1.3-10.5
		c-3.8-5.6-7.8-8.2-12.6-6.6c-4.9,1.5-9.6,3.6-14.6,5.5C264.9,204.3,268.3,204.6,271.9,206.5z M196.6,276.7
		c12.5,0,13.1-0.5,16.3-10.9c0.8-2.6,0.5-4.1-1.8-5.9c-8.7-6.6-17.3-13.5-26-20.1c-6.2-4.7-12.6-9.2-19.5-12.9
		c-2.6-1.4-3.8-0.8-4.2,2.2c-0.7,5.8-1.4,11.5-1,17.4c1.2,15.8,9.2,25.4,24.3,28.7C188.6,276,192.6,276.2,196.6,276.7z M245.1,305.3
		c12.7-0.2,25.1-1.6,36.9-6.7c12-5.2,12.4-6.3,7.2-18.4c-0.2-0.5-0.4-0.9-0.6-1.4c-0.8-2.2-2-2.4-4.2-1.3
		c-21.3,11-43.2,11.3-65.4,2.7c-2.3-0.9-3.2-1.4-3.8,1.8c-0.7,4.2-0.5,8.3-0.7,12.4c-0.1,3.5,1.4,5.5,4.6,6.8
		C227.5,304.6,236.2,305.3,245.1,305.3z M293.1,314.7c-20.9,15.1-43.8,12.9-67.1,9.2c4.1,9.7,23.3,20.7,41.8,17
		C281.7,338.1,292.3,327.4,293.1,314.7z M203.2,243.5c-1.4-7.3-2.1-14.5-1-21.8c1-6.2-1-9.1-6.8-11.5c-2-0.8-3-0.4-3.9,1.5
		C186.6,222.3,189.9,238.6,203.2,243.5z M295.6,229.1c4.1-4.3,2.5-8.4,1.4-12.3c-0.3-1.2-1.1-3.1-2.4-2.7c-1.5,0.5-2.2,2.4-1.4,4.2
		C294.5,221.5,294.9,224.9,295.6,229.1z"/>
	<path d="M253.9,142.1c0.3,0,0.7,0,1,0c3.8,0.6,7.7,1,9.5,5.2c0.9,2.1,0.3,4-1.2,5.5c-3.1,3.1-7,2.5-10.8,1.8
		c-0.5-0.1-0.9-0.4-1.4-0.5c-6.3-2.3-7.7-1.8-10.4,4.6c-2.2,5.3-2.6,10.9-3.4,16.5c-0.4,2.9-0.7,7.1-3.9,7.1c-2,0-1.3-4.5-1.3-7
		c-0.1-7.4,1.2-14.5,4.5-21.2C240,146.9,245.5,142.4,253.9,142.1z"/>
	<path d="M267.3,179.9c2.4-8.6,5.9-16,11.8-22.1c5.8-5.9,12.8-7.4,20.6-5.8c2.5,0.5,4.9,1.7,5.2,4.6c0.4,3.2-1.9,4.8-4.4,5.9
		c-4.3,1.9-8.8,2-13.1,0.2c-2.9-1.3-4.7-0.5-6.3,1.9c-2.2,3.3-4.2,6.8-6.4,10.1C273.2,177.1,271.5,179.7,267.3,179.9z"/>
	<path d="M247.9,247.8c-12.5-0.1-20-6.9-22.7-19.1c-1.2-5.4-1.6-10.8,1.2-16c2.5-4.7,5.5-5.7,10.3-3.5c1.4,0.6,2.7,1.4,3.9,2.2
		c8.7,6.2,17.8,11.4,28.1,14.6c7.2,2.3,8.1,7.1,3,12.7c-3.5,3.8-7.9,6-12.8,7.2C254.8,247,250.7,247.3,247.9,247.8z M247.1,223.3
		c3.8,6.9,9.9,10.6,17.3,12.2c2.1,0.5,3.7-0.2,4.4-2.2c0.7-2.1-1.5-2-2.5-2.3C259.7,229,253.3,226.4,247.1,223.3z"/>
</g>
</svg>
